<?xml version="1.0" standalone="no"?><!DOCTYPE svg PUBLIC "-//W3C//DTD SVG 1.1//EN" "http://www.w3.org/Graphics/SVG/1.1/DTD/svg11.dtd"><svg t="1751730133920" class="icon" viewBox="0 0 1024 1024" version="1.1" xmlns="http://www.w3.org/2000/svg" p-id="9060" id="mx_n_1751730133921" xmlns:xlink="http://www.w3.org/1999/xlink" width="20" height="20"><path d="M384 128a160 160 0 0 0-160 160v149.333333h-64a32 32 0 0 0 0 64h704a32 32 0 0 0 0-64h-64v-149.333333A160 160 0 0 0 640 128H384z m352 309.333333H288v-149.333333A96 96 0 0 1 384 192h256a96 96 0 0 1 96 96v149.333333zM298.666667 576a160 160 0 1 0 159.658666 149.333333h107.349334a160 160 0 1 0 18.133333-64h-143.616A160 160 0 0 0 298.666667 576z m-96 160a96 96 0 1 1 192 0 96 96 0 0 1-192 0z m432.128-32a96.042667 96.042667 0 0 1 186.538666 32 96 96 0 1 1-186.538666-32z" p-id="9061" fill="#CED0D6"></path></svg>